<svg width="28" height="27" viewBox="0 0 28 27" fill="none" xmlns="http://www.w3.org/2000/svg">
<path fill-rule="evenodd" clip-rule="evenodd" d="M11.4746 10.3598C12.6108 10.1431 14.1673 9.13763 13.6793 7.67162C13.4943 7.1161 13.0207 6.70857 12.4524 6.71134C11.9238 6.7141 11.3708 7.03312 11.2005 7.58311C11.4083 7.58772 11.6161 7.59279 11.8238 7.5974C11.8644 6.9944 12.149 6.49466 12.5239 6.05163C12.864 5.65055 13.2965 5.21951 13.8164 5.11763C14.8068 4.92308 15.8683 5.65701 16.4047 6.48498C16.9997 7.40285 17.0861 8.64573 16.6417 9.65258C16.2288 10.5889 15.4231 11.2615 15.1079 12.2568C15.0464 12.4518 15.2127 12.5583 15.3834 12.5431C16.1586 12.4726 16.8822 12.1803 17.4986 11.6764C17.8373 11.3993 17.3288 11.1624 17.0778 11.3675C16.5942 11.7631 16.0486 11.994 15.4379 12.0494C15.53 12.1448 15.6217 12.2402 15.7133 12.3357C16.0149 11.3827 16.7709 10.7217 17.1965 9.84067C17.6312 8.9417 17.6867 7.83113 17.3349 6.89159C16.6919 5.17295 14.5702 3.94343 12.9504 4.98117C12.0905 5.53253 11.2564 6.55137 11.1826 7.64719C11.1604 7.97635 11.7304 7.90489 11.8059 7.66194C11.9216 7.28898 12.266 7.09397 12.6126 7.28437C12.95 7.4697 13.1289 7.91457 13.1123 8.30044C13.0709 9.28423 12.156 9.74478 11.3572 9.89737C10.9561 9.9739 11.0818 10.4349 11.4746 10.3598Z" fill="black"/>
<path fill-rule="evenodd" clip-rule="evenodd" d="M16.8502 12.3597C17.49 13.2247 18.9198 14.2423 20.1451 13.7922C21.4767 13.3033 21.1336 11.8991 20.298 11.1653C20.1534 11.2689 20.0087 11.3726 19.8645 11.4766C21.7259 11.442 23.5394 12.6572 23.4454 14.4654C23.4021 15.3004 22.8927 16.0329 22.0958 16.4475C21.1999 16.913 20.1225 16.8717 19.1745 16.5582C18.4486 16.3188 17.7747 15.7141 16.952 15.8787C16.3744 15.9945 15.964 16.4521 16.2726 16.9757C16.42 17.226 16.6604 17.3915 16.9166 17.5441C17.0778 17.6402 17.251 17.7283 17.3919 17.8491C17.6305 18.0535 17.5481 18.1249 17.3938 18.3673C17.0091 18.9724 16.6918 19.6941 16.9797 20.3882C17.5637 21.7965 20.0317 21.2713 19.8051 19.766C19.7706 19.5382 19.1004 19.6799 19.1377 19.9281C19.2063 20.3841 18.9014 20.9934 18.2791 20.8262C17.8972 20.7238 17.672 20.3669 17.5863 20.0397C17.3951 19.3122 17.8548 18.6339 18.2597 18.0405C18.2952 17.9887 18.2846 17.9498 18.2551 17.9014C17.9608 17.4183 16.7595 17.1011 16.8406 16.4864C16.9193 15.8884 17.911 16.5704 18.2081 16.6999C18.555 16.8516 18.9212 16.9745 19.2957 17.0551C20.6416 17.3451 22.1345 17.0994 23.1631 16.2252C24.193 15.3497 24.3851 13.9698 23.7342 12.8482C23.0428 11.6555 21.5504 11.0746 20.1147 11.101C20.0092 11.103 19.4822 11.2376 19.6812 11.4123C20.0188 11.709 20.3178 12.0621 20.3837 12.498C20.4468 12.9159 20.2427 13.5151 19.6711 13.5143C18.7982 13.513 17.9101 12.7115 17.467 12.1127C17.3288 11.9259 16.6835 12.1344 16.8502 12.3597Z" fill="black"/>
<path fill-rule="evenodd" clip-rule="evenodd" d="M18.9165 19.1859C19.0024 19.8847 19.2292 20.5978 19.1368 21.3052C19.0262 22.1486 18.4876 22.5485 17.6696 22.8254C16.8495 23.1032 16.0598 23.1317 15.3438 22.6149C14.8494 22.2585 14.482 21.7576 14.26 21.214C13.9933 20.5612 13.9143 19.8546 13.8788 19.1611C13.8575 18.7477 14.0614 17.8261 13.5305 17.6502C12.4346 17.2874 12.0174 18.9929 11.7394 19.6094C11.9415 19.5589 12.1432 19.508 12.3453 19.4571C11.6145 18.4688 9.88583 18.922 9.25394 19.776C8.87837 20.2834 8.77949 21.0165 9.32767 21.4485C9.76483 21.7927 10.372 21.7784 10.8438 21.5125C11.2068 21.308 10.6578 21.2237 10.4544 21.3386C10.1309 21.5206 9.72666 21.1093 9.62345 20.8479C9.47556 20.472 9.63472 20.0305 9.88279 19.7284C10.3607 19.1468 11.2914 19.0519 11.7615 19.6876C11.8851 19.855 12.3036 19.6775 12.3678 19.5353C12.5196 19.1981 12.6718 18.8609 12.8236 18.5237C12.8774 18.4048 12.9876 17.9027 13.2074 18.1194C13.2768 18.1874 13.2252 18.5351 13.2274 18.6162C13.2447 19.3146 13.263 20.0204 13.4238 20.7053C13.681 21.8008 14.3918 22.8955 15.581 23.2628C16.1465 23.4375 16.7407 23.396 17.3093 23.2538C17.9047 23.1044 18.5869 22.8971 19.0661 22.5208C20.1842 21.642 19.6859 20.1775 19.5449 19.0279C19.5211 18.8332 18.8892 18.964 18.9165 19.1859Z" fill="black"/>
<path fill-rule="evenodd" clip-rule="evenodd" d="M11.3217 22.2741C10.6713 22.6431 9.96587 23.0736 9.18874 23.0424C8.43356 23.0117 7.93145 22.5198 7.4925 21.962C7.05175 21.4011 6.66028 20.7756 6.70238 20.0362C6.73732 19.4281 7.02398 18.8534 7.41546 18.3949C7.86516 17.8683 8.47791 17.5126 9.10946 17.2415C9.68772 16.9935 10.3587 16.8715 10.902 16.5559C11.2577 16.3494 11.5139 15.9082 11.0543 15.6496C10.8272 15.5218 10.5419 15.5111 10.2893 15.4893C9.93765 15.4595 9.58559 15.4421 9.23309 15.4336C9.01047 15.4288 8.53658 15.7537 8.97106 15.764C9.29938 15.772 9.6268 15.7876 9.95423 15.8169C10.1518 15.8347 10.5352 15.8312 10.6351 16.0515C10.8299 16.4798 9.55558 16.7438 9.27922 16.8493C8.33502 17.2085 7.3841 17.6889 6.74314 18.491C6.13622 19.2505 5.83612 20.2722 6.24058 21.1941C6.61549 22.0484 7.38231 23.0438 8.32382 23.2913C9.52333 23.6064 10.7031 23.0041 11.715 22.4299C11.8229 22.3684 11.8838 22.291 11.7795 22.2064C11.6796 22.1254 11.4126 22.2224 11.3217 22.2741Z" fill="black"/>
<path fill-rule="evenodd" clip-rule="evenodd" d="M8.94694 15.2674C9.22584 14.2075 8.66849 12.9851 7.59144 12.5718C7.14214 12.3993 6.52784 12.4988 6.24087 12.8994C5.853 13.4418 5.89291 14.1931 6.21531 14.7485C6.42605 14.6859 6.6368 14.6234 6.84755 14.5612C5.84628 13.9945 4.83066 13.3097 4.59211 12.1337C4.36702 11.0265 4.91003 9.79363 5.99649 9.30909C7.17263 8.78458 8.59854 9.58243 9.4321 10.3655C9.88498 10.791 10.2621 11.2829 10.6123 11.7891C10.8535 12.1377 11.1252 12.5214 11.6055 12.5005C11.9947 12.4831 12.4435 12.3132 12.5296 11.9095C12.6449 11.3659 12.3435 10.7201 12.2027 10.2034C12.1709 10.0861 11.5203 10.2508 11.553 10.372C11.6902 10.8757 11.988 11.5097 11.8835 12.0386C11.8723 12.0959 11.8624 12.1403 11.8391 12.1933C11.7943 12.2971 11.7893 12.2154 11.8458 12.2298C11.7548 12.2063 11.657 12.1077 11.592 12.046C11.3544 11.8191 11.1925 11.5128 10.9992 11.2512C10.3029 10.3086 9.42583 9.44511 8.25865 9.08747C6.26867 8.47821 3.74733 9.72845 3.89486 11.9491C3.98588 13.3205 5.10553 14.1293 6.2328 14.7672C6.32158 14.8172 6.92153 14.6768 6.86503 14.5799C6.54309 14.0258 6.43771 13.022 7.06323 12.6096C6.97355 12.6474 6.88387 12.6852 6.79374 12.723C6.99911 12.6648 7.4493 13.0276 7.5892 13.148C7.80353 13.3318 7.97661 13.5561 8.10799 13.802C8.36896 14.2909 8.44922 14.8515 8.30842 15.3864C8.28152 15.4886 8.90838 15.4138 8.94694 15.2674Z" fill="black"/>
<mask id="mask0_117_4530" style="mask-type:luminance" maskUnits="userSpaceOnUse" x="10" y="0" width="10" height="11">
<path fill-rule="evenodd" clip-rule="evenodd" d="M10.3887 0.989258H19.0553V10.3781H10.3887V0.989258Z" fill="white"/>
</mask>
<g mask="url(#mask0_117_4530)">
<path fill-rule="evenodd" clip-rule="evenodd" d="M11.0432 9.4158C10.9398 7.89154 11.2468 6.36457 11.9575 5.0203C12.3402 4.29674 12.8468 3.66159 13.3455 3.02193C13.8246 2.40799 14.276 1.71195 14.8151 1.15439C14.7288 1.19814 14.6421 1.24145 14.5554 1.28521C14.5825 1.27754 14.6097 1.26942 14.6368 1.26175C14.5278 1.26265 14.4188 1.26355 14.3097 1.26446C14.4652 1.35603 14.5685 1.6118 14.6653 1.76653C14.787 1.9605 14.9088 2.15402 15.0305 2.34799C15.274 2.73594 15.5179 3.12388 15.7613 3.51183C16.2101 4.22682 16.669 4.93685 17.0872 5.67169C17.8955 7.09174 18.5502 8.65164 18.3978 10.332C18.3886 10.4344 19.0134 10.3631 19.0323 10.157C19.2937 7.2776 17.2759 4.73927 15.8476 2.46393C15.6497 2.14861 15.4522 1.83374 15.2543 1.51842C15.1557 1.36189 15.0537 1.08672 14.8676 1.01906C14.4035 0.849897 14.0304 1.44354 13.8088 1.72773C12.9401 2.8415 11.9491 3.93 11.2945 5.19848C10.5996 6.54411 10.3058 8.07378 10.4087 9.59083C10.4179 9.7239 11.0563 9.60662 11.0432 9.4158Z" fill="black"/>
</g>
<mask id="mask1_117_4530" style="mask-type:luminance" maskUnits="userSpaceOnUse" x="18" y="8" width="10" height="10">
<path fill-rule="evenodd" clip-rule="evenodd" d="M18.3335 8.93359H27.7224V17.6003H18.3335V8.93359Z" fill="white"/>
</mask>
<g mask="url(#mask1_117_4530)">
<path fill-rule="evenodd" clip-rule="evenodd" d="M18.6842 9.6713C20.3448 9.23293 22.0265 9.2885 23.6849 9.70791C24.4215 9.89402 25.152 10.1269 25.8631 10.3946C26.159 10.5062 26.4598 10.6323 26.7118 10.8285C26.8024 10.8987 26.9607 11.0222 27.0109 11.1386C27.1059 11.3591 26.9036 11.5448 26.7919 11.7185C25.2236 14.1605 23.1246 16.6985 20.088 17.166C19.7546 17.2176 19.5853 17.6604 20.0202 17.5934C22.6527 17.1881 24.7372 15.4385 26.298 13.3609C26.7004 12.825 27.0764 12.2698 27.4375 11.7049C27.5799 11.4821 27.8099 11.281 27.6881 11.0217C27.5857 10.8034 27.3988 10.6243 27.2088 10.481C26.7343 10.1225 26.1261 9.94694 25.5711 9.75907C24.8643 9.52003 24.1466 9.30834 23.4153 9.15884C21.8018 8.82983 20.1724 8.85497 18.5787 9.27571C18.189 9.37846 18.2933 9.7745 18.6842 9.6713Z" fill="black"/>
</g>
<mask id="mask2_117_4530" style="mask-type:luminance" maskUnits="userSpaceOnUse" x="12" y="17" width="10" height="10">
<path fill-rule="evenodd" clip-rule="evenodd" d="M12.5557 17.6001H21.9446V26.989H12.5557V17.6001Z" fill="white"/>
</mask>
<g mask="url(#mask2_117_4530)">
<path fill-rule="evenodd" clip-rule="evenodd" d="M19.4657 17.8742C20.6206 18.7858 20.9453 20.2246 21.0844 21.5887C21.2626 23.3333 21.3449 25.1233 21.2417 26.8735C21.4195 26.8058 21.5973 26.7381 21.7751 26.6709C20.8093 26.5551 19.8794 26.4057 18.9951 25.9943C18.1661 25.6081 17.3836 25.1224 16.5911 24.6738C15.3243 23.957 13.5173 23.2023 13.2163 21.6525C13.1795 21.4642 12.517 21.6145 12.5574 21.822C12.8603 23.3818 14.619 24.1444 15.8995 24.8686C16.7698 25.3613 17.6278 25.8999 18.5422 26.3153C19.4379 26.7224 20.3887 26.8696 21.364 26.9867C21.4827 27.0006 21.8874 26.9548 21.8974 26.7836C22.0024 25.0054 21.9238 23.1913 21.7432 21.4188C21.6018 20.0294 21.2554 18.5643 20.0804 17.637C19.9158 17.5073 19.3102 17.7515 19.4657 17.8742Z" fill="black"/>
</g>
<path fill-rule="evenodd" clip-rule="evenodd" d="M6.40276 16.2498C3.40143 18.7201 3.73865 22.7797 4.16495 26.1899C4.18267 26.335 4.55988 26.2348 4.61714 26.211C6.27279 25.5309 7.94161 24.8666 9.56907 24.125C10.9475 23.4967 12.275 22.7366 13.2517 21.5821C13.4139 21.3904 12.7658 21.4524 12.6454 21.5944C11.6719 22.7454 10.3303 23.4686 8.9519 24.0784C7.43896 24.7475 5.90194 25.3691 4.37082 25.9983C4.52171 26.0053 4.67214 26.0123 4.82302 26.0194C4.41445 22.7476 4.0227 18.7038 6.92086 16.3184C7.19491 16.0928 6.5441 16.1337 6.40276 16.2498Z" fill="black"/>
<mask id="mask3_117_4530" style="mask-type:luminance" maskUnits="userSpaceOnUse" x="0" y="8" width="11" height="9">
<path fill-rule="evenodd" clip-rule="evenodd" d="M0.277832 8.21143H10.3889V16.1559H0.277832V8.21143Z" fill="white"/>
</mask>
<g mask="url(#mask3_117_4530)">
<path fill-rule="evenodd" clip-rule="evenodd" d="M7.14059 15.9169C4.12061 14.9955 1.72869 12.5317 0.906277 9.53941L0.699808 9.68724C2.31477 9.11929 3.98859 8.7289 5.69488 8.54496C7.09731 8.39374 8.65383 8.33979 9.78789 9.29983C9.91169 9.40475 10.4666 9.16644 10.3796 9.09295C9.17238 8.07089 7.45744 8.14565 5.96887 8.3058C4.0968 8.50801 2.25806 8.93365 0.485548 9.55683C0.444428 9.57127 0.259169 9.63244 0.27908 9.70466C1.11621 12.7505 3.55877 15.2151 6.62377 16.1505C6.76315 16.193 7.31373 15.97 7.14059 15.9169Z" fill="black"/>
</g>
</svg>
