<svg width="24" height="25" viewBox="0 0 24 25" fill="none" xmlns="http://www.w3.org/2000/svg">
<g clip-path="url(#clip0_117_4418)">
<g clip-path="url(#clip1_117_4418)">
<path fill-rule="evenodd" clip-rule="evenodd" d="M11.9995 2.71191C9.13153 2.71191 8.77249 2.72423 7.64609 2.77527C3.81106 2.95127 1.67969 5.07911 1.5037 8.91767C1.45177 10.045 1.43945 10.404 1.43945 13.2719C1.43945 16.1398 1.45177 16.4997 1.50281 17.6261C1.67881 21.4612 3.80665 23.5925 7.64521 23.7686C8.77249 23.8195 9.13153 23.8319 11.9995 23.8319C14.8674 23.8319 15.2273 23.8195 16.3537 23.7686C20.1852 23.5925 22.3219 21.4647 22.4952 17.6261C22.5472 16.4997 22.5595 16.1398 22.5595 13.2719C22.5595 10.404 22.5472 10.045 22.4961 8.91855C22.3236 5.08703 20.1931 2.95215 16.3546 2.77615C15.2273 2.72423 14.8674 2.71191 11.9995 2.71191ZM11.9995 4.61535C14.819 4.61535 15.1533 4.62591 16.2674 4.67696C19.1292 4.80719 20.466 6.16503 20.5962 9.00567C20.6472 10.1189 20.6569 10.4533 20.6569 13.2728C20.6569 16.0932 20.6464 16.4267 20.5962 17.5399C20.465 20.3779 19.1319 21.7384 16.2674 21.8686C15.1533 21.9197 14.8207 21.9303 11.9995 21.9303C9.17993 21.9303 8.84554 21.9197 7.73233 21.8686C4.86353 21.7375 3.53386 20.3735 3.40361 17.539C3.35257 16.4258 3.34201 16.0923 3.34201 13.2719C3.34201 10.4524 3.35345 10.1189 3.40361 9.00479C3.53473 6.16503 4.86793 4.80631 7.73233 4.67607C8.84641 4.62591 9.17993 4.61535 11.9995 4.61535ZM6.57689 13.2719C6.57689 10.2773 9.00481 7.84935 11.9995 7.84935C14.9941 7.84935 17.422 10.2773 17.422 13.2719C17.422 16.2674 14.9941 18.6954 11.9995 18.6954C9.00481 18.6954 6.57689 16.2666 6.57689 13.2719ZM11.9995 16.7919C10.0555 16.7919 8.47945 15.2167 8.47945 13.2719C8.47945 11.328 10.0555 9.75191 11.9995 9.75191C13.9434 9.75191 15.5195 11.328 15.5195 13.2719C15.5195 15.2167 13.9434 16.7919 11.9995 16.7919ZM16.3687 7.63551C16.3687 6.93591 16.9363 6.36831 17.6368 6.36831C18.3363 6.36831 18.903 6.93591 18.903 7.63551C18.903 8.33511 18.3363 8.90271 17.6368 8.90271C16.9363 8.90271 16.3687 8.33511 16.3687 7.63551Z" fill="#212322"/>
<mask id="mask0_117_4418" style="mask-type:luminance" maskUnits="userSpaceOnUse" x="1" y="2" width="22" height="22">
<path fill-rule="evenodd" clip-rule="evenodd" d="M11.9995 2.71191C9.13153 2.71191 8.77249 2.72423 7.64609 2.77527C3.81106 2.95127 1.67969 5.07911 1.5037 8.91767C1.45177 10.045 1.43945 10.404 1.43945 13.2719C1.43945 16.1398 1.45177 16.4997 1.50281 17.6261C1.67881 21.4612 3.80665 23.5925 7.64521 23.7686C8.77249 23.8195 9.13153 23.8319 11.9995 23.8319C14.8674 23.8319 15.2273 23.8195 16.3537 23.7686C20.1852 23.5925 22.3219 21.4647 22.4952 17.6261C22.5472 16.4997 22.5595 16.1398 22.5595 13.2719C22.5595 10.404 22.5472 10.045 22.4961 8.91855C22.3236 5.08703 20.1931 2.95215 16.3546 2.77615C15.2273 2.72423 14.8674 2.71191 11.9995 2.71191ZM11.9995 4.61535C14.819 4.61535 15.1533 4.62591 16.2674 4.67696C19.1292 4.80719 20.466 6.16503 20.5962 9.00567C20.6472 10.1189 20.6569 10.4533 20.6569 13.2728C20.6569 16.0932 20.6464 16.4267 20.5962 17.5399C20.465 20.3779 19.1319 21.7384 16.2674 21.8686C15.1533 21.9197 14.8207 21.9303 11.9995 21.9303C9.17993 21.9303 8.84554 21.9197 7.73233 21.8686C4.86353 21.7375 3.53386 20.3735 3.40361 17.539C3.35257 16.4258 3.34201 16.0923 3.34201 13.2719C3.34201 10.4524 3.35345 10.1189 3.40361 9.00479C3.53473 6.16503 4.86793 4.80631 7.73233 4.67607C8.84641 4.62591 9.17993 4.61535 11.9995 4.61535ZM6.57689 13.2719C6.57689 10.2773 9.00481 7.84935 11.9995 7.84935C14.9941 7.84935 17.422 10.2773 17.422 13.2719C17.422 16.2674 14.9941 18.6954 11.9995 18.6954C9.00481 18.6954 6.57689 16.2666 6.57689 13.2719ZM11.9995 16.7919C10.0555 16.7919 8.47945 15.2167 8.47945 13.2719C8.47945 11.328 10.0555 9.75191 11.9995 9.75191C13.9434 9.75191 15.5195 11.328 15.5195 13.2719C15.5195 15.2167 13.9434 16.7919 11.9995 16.7919ZM16.3687 7.63551C16.3687 6.93591 16.9363 6.36831 17.6368 6.36831C18.3363 6.36831 18.903 6.93591 18.903 7.63551C18.903 8.33511 18.3363 8.90271 17.6368 8.90271C16.9363 8.90271 16.3687 8.33511 16.3687 7.63551Z" fill="white"/>
</mask>
<g mask="url(#mask0_117_4418)">
<path d="M23.5195 2.23242H0.479492V24.3124H23.5195V2.23242Z" fill="#212322"/>
</g>
</g>
</g>
<defs>
<clipPath id="clip0_117_4418">
<rect width="24" height="24" fill="white" transform="translate(-0.000488281 0.938477)"/>
</clipPath>
<clipPath id="clip1_117_4418">
<rect width="24" height="24" fill="white" transform="translate(-0.000488281 0.938477)"/>
</clipPath>
</defs>
</svg>
