<svg width="24" height="25" viewBox="0 0 24 25" fill="none" xmlns="http://www.w3.org/2000/svg">
<g clip-path="url(#clip0_117_4443)">
<g clip-path="url(#clip1_117_4443)">
<path d="M7.06442 9.85742H3.30322V21.8516H7.06442V9.85742Z" fill="#212322"/>
<path d="M17.2382 9.59756C17.0995 9.58022 16.9522 9.57156 16.8049 9.56289C14.6989 9.47623 13.5116 10.7242 13.0957 11.2615C12.983 11.4088 12.931 11.4955 12.931 11.4955V9.89221H9.33447V21.8864H12.931H13.0957C13.0957 20.6644 13.0957 19.4512 13.0957 18.2292C13.0957 17.5706 13.0957 16.9119 13.0957 16.2533C13.0957 15.4387 13.035 14.572 13.4423 13.8267C13.789 13.2028 14.4129 12.8908 15.1149 12.8908C17.1948 12.8908 17.2382 14.7714 17.2382 14.9447C17.2382 14.9534 17.2382 14.962 17.2382 14.962V21.9384H20.9994V14.1127C20.9994 11.4348 19.6387 9.85755 17.2382 9.59756Z" fill="#212322"/>
<path d="M5.18343 8.3063C6.38957 8.3063 7.36735 7.32853 7.36735 6.12239C7.36735 4.91625 6.38957 3.93848 5.18343 3.93848C3.97728 3.93848 2.99951 4.91625 2.99951 6.12239C2.99951 7.32853 3.97728 8.3063 5.18343 8.3063Z" fill="#212322"/>
</g>
</g>
<defs>
<clipPath id="clip0_117_4443">
<rect width="24" height="24" fill="white" transform="translate(-0.000488281 0.938477)"/>
</clipPath>
<clipPath id="clip1_117_4443">
<rect width="24" height="24" fill="white" transform="translate(-0.000488281 0.938477)"/>
</clipPath>
</defs>
</svg>
